General
Complete name                            : Wunderwelt_Erde_20.03.31_11-00_arte_45_TVOON_DE.mpg.HD.test.avi
Format                                   : AVI
Format/Info                              : Audio Video Interleave
File size                                : 577 MiB
Duration                                 : 34 min 57 s
Overall bit rate mode                    : Variable
Overall bit rate                         : 2 306 kb/s
Encoded by                               : www.onlinetvrecorder.com
Writing application                      : Lavf58.42.100
Writing library                          : VirtualDub build 28346/release
Comment                                  :  

Video
ID                                       : 0
Format                                   : AVC
Format/Info                              : Advanced Video Codec
Format profile                           : Main@L3.2
Format settings                          : CABAC / 1 Ref Frames
Format settings, CABAC                   : Yes
Format settings, Reference frames        : 1 frame
Codec ID                                 : H264
Duration                                 : 34 min 57 s
Bit rate mode                            : Variable
Bit rate                                 : 2 094 kb/s
Maximum bit rate                         : 6 000 kb/s
Width                                    : 1 280 pixels
Height                                   : 720 pixels
Display aspect ratio                     : 16:9
Frame rate                               : 50.000 FPS
Color space                              : YUV
Chroma subsampling                       : 4:2:0
Bit depth                                : 8 bits
Scan type                                : Progressive
Bits/(Pixel*Frame)                       : 0.045
Stream size                              : 524 MiB (91%)
Writing library                          : x264 core 1679488332Apr 22 2009
Encoding settings                        : cabac=1 / ref=3 / deblock=1:0:0 / analyse=0x1:0x111 / me=umh / subme=5 / psy_rd=0.0:0.0 / mixed_ref=1 / me_range=16 / chroma_me=1 / trellis=1 / 8x8dct=0 / cqm=0 / deadzone=21,11 / chroma_qp_offset=0 / threads=1 / nr=0 / decimate=0 / mbaff=0 / bframes=3 / b_pyramid=0 / b_adapt=1 / b_bias=0 / direct=2 / wpredb=1 / keyint=250 / keyint_min=1 / scenecut=40 / rc=cqp / qp=23 / ip_ratio=1.00 / pb_ratio=1.00 / aq=0

Audio
ID                                       : 1
Format                                   : MPEG Audio
Format version                           : Version 1
Format profile                           : Layer 3
Format settings                          : Joint stereo / MS Stereo
Codec ID                                 : 55
Codec ID/Hint                            : MP3
Duration                                 : 34 min 57 s
Bit rate mode                            : Constant
Bit rate                                 : 192 kb/s
Channel(s)                               : 2 channels
Sampling rate                            : 48.0 kHz
Compression mode                         : Lossy
Stream size                              : 48.0 MiB (8%)
Alignment                                : Split across interleaves
Interleave, duration                     : 20  ms (1.00 video frame)
Interleave, preload duration             : 500  ms


